<svg xmlns="http://www.w3.org/2000/svg" width="90.76" height="103.851" viewBox="0 0 90.76 103.851"><defs><linearGradient id="a" x2="1" y1=".5" y2=".5" gradientUnits="objectBoundingBox"><stop offset="0" stop-color="#63be6b"/><stop offset=".506" stop-color="#5bbc6a"/><stop offset="1" stop-color="#4ab96a"/></linearGradient><linearGradient id="b" x2=".999" y1=".5" y2=".5" gradientUnits="objectBoundingBox"><stop offset="0" stop-color="#3ec6f2"/><stop offset="1" stop-color="#45afe3"/></linearGradient><linearGradient id="c" x2="1" y1=".5" y2=".5" gradientUnits="objectBoundingBox"><stop offset="0" stop-color="#faa51a"/><stop offset=".387" stop-color="#fab716"/><stop offset=".741" stop-color="#fac412"/><stop offset="1" stop-color="#fac80f"/></linearGradient><linearGradient id="d" x2="1" y1=".5" y2=".5" gradientUnits="objectBoundingBox"><stop offset="0" stop-color="#ec3b50"/><stop offset="1" stop-color="#e7515b"/></linearGradient></defs><g data-name="google play store" transform="translate(0 .001)"><path fill="url(#a)" d="M58.215,31.654,3.337.288A2.21,2.21,0,0,0,1.112.311,2.2,2.2,0,0,0,0,2.224S.022,5.116.044,9.876L40.019,49.85Z" data-name="Path 138"/><path fill="url(#b)" d="M.2,44.4c.067,17.173.267,58.86.356,79.615L40.2,84.374Z" data-name="Path 139" transform="translate(-.156 -34.524)"/><path fill="url(#c)" d="M229.429,160.252,198.019,142.3,179.8,160.5l20.554,20.554,29.1-16.951a2.224,2.224,0,0,0,1.112-1.913A2.253,2.253,0,0,0,229.429,160.252Z" data-name="Path 140" transform="translate(-139.804 -110.646)"/><path fill="url(#d)" d="M1.7,263.818c.044,7.408.067,12.146.067,12.146a2.17,2.17,0,0,0,1.112,1.913,2.21,2.21,0,0,0,2.224,0l56.791-33.123L41.341,224.2Z" data-name="Path 141" transform="translate(-1.322 -174.328)"/></g></svg>