<svg xmlns="http://www.w3.org/2000/svg" enable-background="new 0 0 128 128" viewBox="0 0 128 128"><path fill="none" d="M84.7 43.6L67.3 64l17.3 20.4c4.5-5.4 7.2-12.5 7.2-20.4S89.2 49 84.7 43.6zM46.9 88c4.7 4 10.6 6.4 17.1 6.4S76.4 92 81.1 88L64 67.9 46.9 88z"/><path fill="none" d="M97 64c0 9.4-3.4 17.9-9 24.3l.2.2c10.2-5.3 18.6-13.8 23.7-24.5-5.1-10.8-13.5-19.3-23.7-24.5L88 39.7C93.6 46.1 97 54.6 97 64zM64 60.1L81.1 40c-4.7-4-10.6-6.4-17.1-6.4S51.6 36 46.9 40L64 60.1zM43.3 84.4L60.7 64 43.3 43.6C38.8 49 36.1 56.2 36.1 64S38.8 79 43.3 84.4z"/><path fill="none" d="M39.8,88.5l0.2-0.2c-5.6-6.4-9-14.9-9-24.3c0-9.4,3.4-17.9,9-24.3l-0.2-0.2C29.6,44.7,21.2,53.2,16.1,64
		C21.2,74.8,29.6,83.3,39.8,88.5z"/><path d="M10.8,64.4c0,0.2,0.1,0.4,0.1,0.5c0,0,0,0,0,0.1c5.3,12,14.4,21.5,25.5,27.5l-17.5,20.6c-0.9,1.1-0.8,2.7,0.3,3.6
		c0.5,0.4,1.1,0.6,1.6,0.6c0.7,0,1.4-0.3,1.9-0.9l18.4-21.6c7.1,3,14.8,4.7,22.8,4.7s15.7-1.7,22.8-4.7l18.4,21.6
		c0.5,0.6,1.2,0.9,1.9,0.9c0.6,0,1.2-0.2,1.6-0.6c1.1-0.9,1.2-2.5,0.3-3.6L91.6,92.5c11.1-6,20.2-15.5,25.5-27.5c0,0,0,0,0-0.1
		c0.1-0.2,0.1-0.4,0.1-0.5c0-0.1,0.1-0.3,0.1-0.4c0-0.1,0-0.3-0.1-0.4c0-0.2-0.1-0.4-0.1-0.5c0,0,0,0,0-0.1
		c-5.3-12-14.4-21.5-25.5-27.5l17.5-20.6c0.9-1.1,0.8-2.7-0.3-3.6c-1.1-0.9-2.7-0.8-3.6,0.3L86.8,33.2c-7.1-3-14.8-4.7-22.8-4.7
		s-15.7,1.7-22.8,4.7L22.8,11.6c-0.9-1.1-2.5-1.2-3.6-0.3c-1.1,0.9-1.2,2.5-0.3,3.6l17.5,20.6C25.4,41.5,16.3,51,10.9,63
		c0,0,0,0,0,0.1c-0.1,0.2-0.1,0.4-0.1,0.5c0,0.1-0.1,0.3-0.1,0.4C10.7,64.1,10.8,64.3,10.8,64.4z M64,94.4c-6.4,0-12.4-2.4-17.1-6.4
		L64,67.9L81.1,88C76.4,92,70.4,94.4,64,94.4z M67.3,64l17.3-20.4c4.5,5.4,7.2,12.5,7.2,20.4s-2.8,15-7.2,20.4L67.3,64z M81.1,40
		L64,60.1L46.9,40c4.7-4,10.6-6.4,17.1-6.4S76.4,36,81.1,40z M60.7,64L43.3,84.4C38.8,79,36.1,71.8,36.1,64s2.8-15,7.2-20.4L60.7,64
		z M111.9,64c-5.1,10.8-13.5,19.3-23.7,24.5L88,88.3c5.6-6.4,9-14.9,9-24.3c0-9.4-3.4-17.9-9-24.3l0.2-0.2
		C98.4,44.7,106.8,53.2,111.9,64z M39.8,39.5l0.2,0.2c-5.6,6.4-9,14.9-9,24.3c0,9.4,3.4,17.9,9,24.3l-0.2,0.2
		C29.6,83.3,21.2,74.8,16.1,64C21.2,53.2,29.6,44.7,39.8,39.5z"/></svg>